# xmcd CD database file
#
# Track frame offsets:
#	150
#	17053
#	34556
#	45869
#	61480
#	77422
#	91170
#	108716
#	122627
#	135695
#	156355
#	171088
#	185651
#	197344
#
# Disc length: 2741 seconds
#
# Revision: 1
# Processed by: cddbd v1.5.1PL2 Copyright (c) Steve Scherf et al.
# Submitted via: CDex 1.51
#
DISCID=ac0ab30e
DTITLE=Scott H. Biram - Graveyard Shift
DYEAR=2006
DGENRE=Americana
TTITLE0=Been Down Too Long
TTITLE1=No Way
TTITLE2=Graveyard Shift
TTITLE3=Lost Case of Being Found
TTITLE4=Only Jesus
TTITLE5=Goin' Home
TTITLE6=18 Wheeler Fever
TTITLE7=Plow You Under
TTITLE8=Work
TTITLE9=Long Fingernail
TTITLE10=Reefer Load
TTITLE11=Have No Fun
TTITLE12=Santa Fe
TTITLE13=church babies
EXTD=YEAR: 2006
EXTT0=
EXTT1=
EXTT2=
EXTT3=
EXTT4=
EXTT5=
EXTT6=
EXTT7=
EXTT8=
EXTT9=
EXTT10=
EXTT11=
EXTT12=
EXTT13=
PLAYORDER=
